<!--?xml version="1.0" encoding="utf-8"?-->
<!-- Svg Vector Icons : http://www.onlinewebfonts.com/icon -->

<svg version="1.1" xmlns="http://www.w3.org/2000/svg" xmlns:xlink="http://www.w3.org/1999/xlink" x="0px" y="0px" viewBox="0 0 256 256" enable-background="new 0 0 256 256" xml:space="preserve">
<metadata> Svg Vector Icons : http://www.onlinewebfonts.com/icon </metadata>
<g><g><path fill="#408dfb" data-title="Layer 0" xs="0" d="M79.1,103.3c3.6,1,9.1,1.9,14-1.3c5.1-3.3,2.6-6.9,1.3-8.7L79.1,103.3L79.1,103.3z"/><path fill="#408dfb" data-title="Layer 1" xs="1" d="M102.7,74.2c-4.8,3.1-2,6.7-0.7,8.5l14.5-9.4C114,72.5,108,70.8,102.7,74.2L102.7,74.2z"/><path fill="#408dfb" data-title="Layer 2" xs="2" d="M39.5,126c20.6,10.6,47.3,14.6,72.4,12.2l-6-6.9c-20.3,1.3-41.6-2.2-58.1-10.8c-30.9-16-33.8-43.4-6.5-61.2C68.6,41.5,115.8,40,146.7,56c1.4,0.7,2.8,1.5,4.1,2.3v-2.2c0-2.4,0.8-4.6,2.2-6.5c-16.4-8-36.4-12-56.3-12c-1.6,0-3.1,0.1-4.7,0.1c-0.1,0-0.2,0-0.3,0c-2.7,0.1-5.4,0.2-8,0.5c-0.1,0-0.2,0-0.3,0c-2.6,0.2-5.3,0.5-7.9,0.9c-0.1,0-0.2,0-0.3,0c-2.6,0.4-5.2,0.8-7.8,1.4c-0.1,0-0.1,0-0.2,0C54,43.5,41.8,48,31.9,54.5l0,0c-14,9.1-21.2,20.4-21.8,31.7C9.2,100.9,19.2,115.6,39.5,126L39.5,126z"/><path fill="#408dfb" data-title="Layer 3" xs="3" d="M113.9,112.9h37V62.5c-2.2-1.5-4.6-3-7.3-4.4c-29-14.9-73.1-13.5-98.7,3.2c-25.5,16.7-22.8,42.3,6.1,57.3c15.2,7.8,34.5,11.1,53.1,10.1c-1.4-2.9-1.5-6.3-0.1-9.3C105.7,115.4,109.6,112.9,113.9,112.9L113.9,112.9z M70.2,109.9l-4,2.6c-1.5,1-2.1,1-3.9,0.1l-0.6-0.3l-1.5-0.7c-1.8-0.9-1.9-1.3-0.4-2.2l4-2.6c-3.4-1.8-15.4-10.4-12.7-12.1c0.3-0.2,0.3-0.2,1-0.4l10.4-3.4c0.3-0.1,1.2-0.2,1.6,0c0.6,0.3,3.9,6,9.3,9.6l17.4-11.3c-3.7-4.7-12.1-12.7-0.4-20.3c13.1-8.5,29.8-4.2,34.6-2l4.4-2.8c1.5-1,2.1-1,3.9-0.1l2,1.1c1.8,0.9,1.8,1.3,0.3,2.2l-4.4,2.8c2.7,1.6,13.6,9.5,10.6,11.5c-0.4,0.2-0.7,0.4-1.3,0.5l-9.1,2.3c-0.6,0.2-1.2,0.2-1.6,0c-0.6-0.3-3.5-6-7.9-8.2l-16.4,10.7c3.7,5.2,10.9,13.4-0.5,20.8C92.8,115.6,77.8,112.7,70.2,109.9L70.2,109.9z"/><path fill="#408dfb" data-title="Layer 4" xs="4" d="M97.8,150.3c-23.3,0-45.8-5-63.5-14.2c-10-5.2-18.1-11.5-24.1-18.7c1.3,13,11.2,25.7,29.3,35.1c16.8,8.7,37.6,12.9,58.3,12.9c11.6,0,23.2-1.3,34-4l-11-12.8C113.3,149.7,105.7,150.3,97.8,150.3L97.8,150.3z"/><path fill="#408dfb" data-title="Layer 5" xs="5" d="M34.3,162.5c-10-5.2-18.1-11.5-24.1-18.7c1.3,13,11.2,25.7,29.3,35.1c16.8,8.6,37.6,12.9,58.3,12.9c18.3,0,36.5-3.3,51.8-9.9l-9.5-11c-13,3.8-27.3,5.8-42.2,5.8C74.5,176.7,52,171.7,34.3,162.5L34.3,162.5z"/><path fill="#408dfb" data-title="Layer 6" xs="6" d="M97.8,203.2c-23.3,0-45.8-5-63.5-14.2c-10-5.2-18.1-11.5-24.1-18.7c1.3,13,11.2,25.7,29.3,35.1c16.8,8.6,37.6,12.9,58.3,12.9c23.9,0,47.7-5.7,64.8-16.8l0,0c0.8-0.5,1.6-1.1,2.4-1.6l-7.7-8.9C140.4,198.9,119.8,203.2,97.8,203.2L97.8,203.2z"/><path fill="#408dfb" data-title="Layer 7" xs="7" d="M198,125.3V57.6h-32v67.7h-48l64,74l64-74H198z"/></g></g>
</svg>