<?xml version="1.0" encoding="UTF-8"?>
<svg xmlns="http://www.w3.org/2000/svg" xmlns:xlink="http://www.w3.org/1999/xlink"   viewBox="0 0 192 192" version="1.1">
<g>
<path style=" stroke:none;fill-rule:nonzero;fill-opacity:1;" fill="#3f8dfb" d="M 132.652344 114.558594 C 129.953125 113.800781 125.832031 113.113281 122.148438 115.503906 C 118.316406 117.96875 120.183594 120.671875 121.152344 122.027344 L 132.648438 114.5625 Z M 132.652344 114.558594 "/>
<path style=" stroke:none;fill-rule:nonzero;fill-opacity:1;" fill="#3f8dfb" d="M 114.886719 136.332031 C 118.492188 134.019531 116.402344 131.3125 115.429688 129.957031 L 104.535156 136.972656 C 106.410156 137.578125 110.90625 138.867188 114.886719 136.328125 Z M 114.886719 136.332031 "/>
<path style=" stroke:none;fill-rule:nonzero;fill-opacity:1;" fill="#3f8dfb" d="M 162.402344 97.621094 C 146.976562 89.625 126.960938 86.566406 108.128906 88.308594 L 112.613281 93.496094 C 127.839844 92.566406 143.808594 95.238281 156.164062 101.726562 C 179.304688 113.796875 181.417969 134.351562 160.902344 147.640625 C 140.386719 160.929688 104.984375 161.949219 81.84375 149.878906 C 80.796875 149.351562 79.746094 148.746094 78.773438 148.144531 L 78.769531 149.792969 C 78.765625 151.59375 78.160156 153.242188 77.105469 154.664062 C 89.386719 160.699219 104.378906 163.746094 119.304688 163.789062 C 120.503906 163.792969 121.628906 163.722656 122.828125 163.722656 C 122.902344 163.722656 122.976562 163.722656 123.054688 163.722656 C 125.078125 163.652344 127.105469 163.585938 129.054688 163.367188 C 129.128906 163.367188 129.203125 163.367188 129.28125 163.367188 C 131.230469 163.222656 133.257812 163.003906 135.207031 162.710938 C 135.28125 162.710938 135.355469 162.710938 135.433594 162.710938 C 137.382812 162.417969 139.335938 162.121094 141.285156 161.679688 C 141.359375 161.679688 141.359375 161.679688 141.433594 161.679688 C 151.339844 159.460938 160.5 156.113281 167.941406 151.257812 C 178.460938 144.464844 183.886719 136.003906 184.363281 127.53125 C 185.070312 116.507812 177.605469 105.460938 162.402344 97.617188 Z M 162.402344 97.621094 "/>
<path style=" stroke:none;fill-rule:nonzero;fill-opacity:1;" fill="#3f8dfb" d="M 106.574219 107.28125 L 78.824219 107.199219 L 78.710938 145 C 80.359375 146.128906 82.152344 147.261719 84.175781 148.316406 C 105.890625 159.554688 138.96875 158.605469 158.207031 146.136719 C 177.371094 133.667969 175.402344 114.460938 153.761719 103.148438 C 142.378906 97.265625 127.910156 94.746094 113.960938 95.453125 C 115.003906 97.632812 115.070312 100.179688 114.015625 102.429688 C 112.730469 105.425781 109.800781 107.292969 106.574219 107.28125 Z M 139.34375 109.628906 L 142.347656 107.6875 C 143.476562 106.941406 143.925781 106.941406 145.273438 107.621094 L 145.722656 107.847656 L 146.847656 108.375 C 148.195312 109.054688 148.269531 109.355469 147.144531 110.027344 L 144.140625 111.96875 C 146.6875 113.328125 155.667969 119.804688 153.636719 121.070312 C 153.410156 121.21875 153.410156 121.21875 152.886719 121.367188 L 145.078125 123.894531 C 144.851562 123.96875 144.175781 124.042969 143.878906 123.890625 C 143.429688 123.664062 140.96875 119.382812 136.925781 116.667969 L 123.851562 125.105469 C 126.617188 128.640625 132.898438 134.65625 124.105469 140.332031 C 114.261719 146.675781 101.746094 143.414062 98.152344 141.753906 L 94.847656 143.84375 C 93.71875 144.589844 93.269531 144.589844 91.921875 143.910156 L 90.425781 143.082031 C 89.078125 142.402344 89.078125 142.101562 90.207031 141.429688 L 93.511719 139.339844 C 91.492188 138.132812 83.332031 132.183594 85.585938 130.691406 C 85.886719 130.542969 86.113281 130.394531 86.5625 130.320312 L 93.394531 128.617188 C 93.84375 128.46875 94.296875 128.46875 94.59375 128.621094 C 95.042969 128.847656 97.207031 133.128906 100.5 134.789062 L 112.824219 126.800781 C 110.0625 122.890625 104.679688 116.726562 113.246094 111.203125 C 122.414062 105.304688 133.65625 107.515625 139.351562 109.632812 Z M 139.34375 109.628906 "/>
<path style=" stroke:none;fill-rule:nonzero;fill-opacity:1;" fill="#3f8dfb" d="M 118.734375 79.269531 C 136.210938 79.320312 153.074219 83.121094 166.328125 90.0625 C 173.816406 93.984375 179.878906 98.726562 184.359375 104.140625 C 183.414062 94.386719 176.015625 84.839844 162.464844 77.75 C 149.882812 71.1875 134.292969 67.992188 118.769531 67.945312 C 110.070312 67.917969 101.367188 68.867188 93.261719 70.871094 L 101.484375 80.496094 C 107.113281 79.6875 112.8125 79.253906 118.738281 79.273438 Z M 118.734375 79.269531 "/>
<path style=" stroke:none;fill-rule:nonzero;fill-opacity:1;" fill="#3f8dfb" d="M 166.382812 70.257812 C 173.871094 74.179688 179.933594 78.921875 184.414062 84.335938 C 183.46875 74.582031 176.070312 65.035156 162.519531 57.945312 C 149.9375 51.457031 134.347656 48.1875 118.824219 48.140625 C 105.097656 48.101562 91.441406 50.535156 79.953125 55.449219 L 87.054688 63.71875 C 96.8125 60.898438 107.542969 59.429688 118.71875 59.464844 C 136.269531 59.515625 153.132812 63.316406 166.386719 70.257812 Z M 166.382812 70.257812 "/>
<path style=" stroke:none;fill-rule:nonzero;fill-opacity:1;" fill="#3f8dfb" d="M 118.851562 39.59375 C 136.328125 39.644531 153.191406 43.445312 166.445312 50.386719 C 173.933594 54.308594 179.996094 59.050781 184.476562 64.464844 C 183.53125 54.710938 176.132812 45.164062 162.582031 38.074219 C 150 31.585938 134.410156 28.316406 118.886719 28.269531 C 100.960938 28.214844 83.097656 32.4375 70.25 40.722656 C 69.648438 41.097656 69.046875 41.542969 68.445312 41.917969 L 74.199219 48.609375 C 86.890625 42.722656 102.351562 39.542969 118.851562 39.59375 Z M 118.851562 39.59375 "/>
<path style=" stroke:none;fill-rule:nonzero;fill-opacity:1;" fill="#3f8dfb" d="M 43.527344 97.792969 L 43.375 148.566406 L 67.375 148.636719 L 67.527344 97.863281 L 103.527344 97.96875 L 55.691406 42.324219 L 7.527344 97.679688 L 43.527344 97.785156 Z M 43.527344 97.792969 "/>
</g>
</svg>
