<!--?xml version="1.0" encoding="utf-8"?-->
<!-- Svg Vector Icons : http://www.onlinewebfonts.com/icon -->

<svg version="1.1" xmlns="http://www.w3.org/2000/svg" xmlns:xlink="http://www.w3.org/1999/xlink" x="0px" y="0px" viewBox="0 0 256 256" enable-background="new 0 0 256 256" xml:space="preserve">
<metadata> Svg Vector Icons : http://www.onlinewebfonts.com/icon </metadata>
<g><g><path fill="#408dfb" data-title="Layer 0" xs="0" d="M154.5,58.1c4.1,0,8.2,0,12.3,0c0,4.4,0,8.7,0,13.1c-3.3,0-6.5,0-10,0c1.5,1.8,2.7,3.3,4,4.8c8.5,9.7,17.9,18.4,27.6,26.9c5.8,5,11.1,10.6,15.7,16.8c7,9.4,11.5,19.9,13.6,31.5c2.6,14.9,1.7,29.5-3.4,43.7c-5.7,16-16.2,28.2-30.7,36.9c-11.2,6.7-23.4,10.9-36.3,12.8c-13.1,1.9-26.2,2.1-39.2-0.1c-17.3-2.9-32.8-9.7-45.9-21.5c-13-11.8-21.1-26.3-24-43.6c-2.5-14.5-0.4-28.5,4.9-42.1c3.7-9.6,9.1-18.1,15.8-25.9c4.7-5.5,10.1-10.2,15.5-15c8.3-7.4,15.8-15.5,22.7-24.2c0.2-0.2,0.4-0.5,0.7-0.9c-2.9,0-5.6,0-8.4,0c0-4.4,0-8.7,0-13.2c3.5,0,7,0,10.6,0c-0.3-0.6-0.5-1-0.7-1.3c-2.9-4.6-5.9-9.2-8.9-13.8C87,38,82.6,34.2,78,30.7c-2.1-1.6-3.6-3.5-4.5-5.9c-0.8-2.1-0.6-4.1,0.8-5.9c1.5-1.9,3.6-2.8,6-2.3c3,0.7,5.9,1.4,8.8,2.3c4.3,1.3,7.9,0.3,11.1-2.7c2.5-2.3,5.1-4.6,8.5-5.5c4.4-1.1,8.4-0.1,11.8,3.2c1.9,1.8,4.2,3.2,6.4,4.7c0.4,0.2,1.3,0,1.7-0.3c1.2-0.9,2.3-2,3.5-3c1.9-1.5,3.8-2.9,5.8-4.2c1.7-1.1,3.6-1.2,5.5-0.8c3.5,0.7,6.8,1.8,9.3,4.6c0.6,0.7,1.3,1.2,2,1.8c3.6,3.2,7.6,3.3,11.8,1.8c2-0.7,3.9-1.5,5.9-2c4.9-1.1,9.1,2.5,8.4,7.2c-0.2,1.5-1.1,3.1-1.9,4.4c-0.6,1.1-1.6,2.1-2.6,2.7c-5.9,3.4-9.8,8.6-13.6,14c-3,4.3-5.6,8.7-8.5,13.1C154.4,57.9,154.4,58,154.5,58.1z M140.5,194.8c0.6-0.1,1.1-0.2,1.5-0.3c4.8-0.5,9.3-1.8,13.5-4.1c8.6-4.6,13.9-11.5,14.4-21.5c0.2-4-0.3-8-2.1-11.7c-2.1-4.5-5.9-7.3-10.2-9.4c-5.1-2.5-10.5-3.8-15.9-5.2c-0.9-0.2-1.3-0.6-1.2-1.6c0-7.1,0-14.2,0-21.4c0-0.4,0-0.8,0.1-1.4c6.6,1.2,11,4.4,11.5,11.4c5.1,0,10.1,0,15.2,0c-0.1-1-0.2-1.9-0.3-2.8c-0.9-6.7-4-12.1-9.8-15.7c-4.7-2.9-9.9-4.1-15.3-4.7c-1.1-0.1-1.4-0.5-1.3-1.5c0.1-3.4,0-6.7,0-10.1c0-0.5,0-0.9,0-1.4c-3.9,0-7.6,0-11.6,0c0,4.3,0,8.5,0,12.7c-6.8,0.7-13,2.5-18.5,6.5c-9.8,7.1-10.8,18.9-7.2,27.8c1.8,4.4,5.4,7,9.5,9c4.8,2.3,9.9,3.6,15.1,4.9c1,0.2,1.2,0.6,1.2,1.6c0,8.3,0,16.6,0,24.9c0,0.4,0,0.8,0,1.3c-4.1-0.6-7.5-2-9.9-4.1c-3.2-2.8-4.3-6.6-4.4-10.7c-5.1,0-10.1,0-15.1,0c0,0.3,0,0.4,0,0.6c0.1,1.2,0.2,2.4,0.5,3.6c1.3,7.6,4.9,13.7,11.6,17.8c4.9,3,10.4,4.3,16.1,4.9c1.2,0.1,1.4,0.5,1.4,1.6c-0.1,3.4,0,6.7,0,10.1c0,0.4,0,0.8,0,1.3c3.8,0,7.6,0,11.4,0C140.5,203.1,140.5,199,140.5,194.8z"/><path fill="#408dfb" data-title="Layer 1" xs="1" d="M140.6,157.6c3.5,1.4,6.9,2.6,10.1,4.1c3.8,1.8,4.4,5.4,3.9,9.1c-0.6,5.6-4,8.9-9.2,10.6c-1.6,0.5-3.2,0.7-5,1.2C140.6,174.4,140.6,166.2,140.6,157.6z"/><path fill="#408dfb" data-title="Layer 2" xs="2" d="M128.9,118.2c0,7.1,0,14.1,0,21.3c-3.7-1.2-7.5-1.8-10.5-4.3c-0.6-0.5-1.1-1.1-1.3-1.8c-1.3-5.1-0.6-9.6,4.4-12.6C123.8,119.4,126.3,118.7,128.9,118.2z"/></g></g>
</svg>